<mxfile host="app.diagrams.net" modified="2024-03-31T03:59:52.063Z" agent="Mozilla/5.0 (Windows NT 10.0; Win64; x64) AppleWebKit/537.36 (KHTML, like Gecko) Chrome/123.0.0.0 Safari/537.36" etag="ZquocY2EjQia41IGKrwj" version="24.2.1" type="github">
  <diagram name="第 1 页" id="EwZU2G2gE6JCwP5dEdJQ">
    <mxGraphModel dx="1434" dy="746" grid="1" gridSize="10" guides="1" tooltips="1" connect="1" arrows="1" fold="1" page="1" pageScale="1" pageWidth="827" pageHeight="1169" math="0" shadow="0">
      <root>
        <mxCell id="0" />
        <mxCell id="1" parent="0" />
        <mxCell id="wVVDFKDkn5gD_K5r9pn0-21" style="edgeStyle=orthogonalEdgeStyle;rounded=0;orthogonalLoop=1;jettySize=auto;html=1;entryX=0.5;entryY=0;entryDx=0;entryDy=0;" edge="1" parent="1" source="wVVDFKDkn5gD_K5r9pn0-2" target="wVVDFKDkn5gD_K5r9pn0-3">
          <mxGeometry relative="1" as="geometry" />
        </mxCell>
        <mxCell id="wVVDFKDkn5gD_K5r9pn0-2" value="业务流程开始" style="rounded=1;whiteSpace=wrap;html=1;" vertex="1" parent="1">
          <mxGeometry x="350" y="30" width="120" height="60" as="geometry" />
        </mxCell>
        <mxCell id="wVVDFKDkn5gD_K5r9pn0-55" style="edgeStyle=orthogonalEdgeStyle;rounded=0;orthogonalLoop=1;jettySize=auto;html=1;entryX=0.5;entryY=0;entryDx=0;entryDy=0;" edge="1" parent="1" source="wVVDFKDkn5gD_K5r9pn0-3" target="wVVDFKDkn5gD_K5r9pn0-4">
          <mxGeometry relative="1" as="geometry" />
        </mxCell>
        <mxCell id="wVVDFKDkn5gD_K5r9pn0-3" value="业务系统（学历认证、云招聘）发起支付" style="rounded=0;whiteSpace=wrap;html=1;" vertex="1" parent="1">
          <mxGeometry x="340" y="140" width="134" height="60" as="geometry" />
        </mxCell>
        <mxCell id="wVVDFKDkn5gD_K5r9pn0-9" style="edgeStyle=orthogonalEdgeStyle;rounded=0;orthogonalLoop=1;jettySize=auto;html=1;" edge="1" parent="1" source="wVVDFKDkn5gD_K5r9pn0-4" target="wVVDFKDkn5gD_K5r9pn0-5">
          <mxGeometry relative="1" as="geometry" />
        </mxCell>
        <mxCell id="wVVDFKDkn5gD_K5r9pn0-12" value="调用支付" style="edgeLabel;html=1;align=center;verticalAlign=middle;resizable=0;points=[];" vertex="1" connectable="0" parent="wVVDFKDkn5gD_K5r9pn0-9">
          <mxGeometry x="-0.1008" y="-2" relative="1" as="geometry">
            <mxPoint as="offset" />
          </mxGeometry>
        </mxCell>
        <mxCell id="wVVDFKDkn5gD_K5r9pn0-23" style="edgeStyle=orthogonalEdgeStyle;rounded=0;orthogonalLoop=1;jettySize=auto;html=1;exitX=0.5;exitY=1;exitDx=0;exitDy=0;entryX=0.5;entryY=0;entryDx=0;entryDy=0;" edge="1" parent="1" source="wVVDFKDkn5gD_K5r9pn0-4" target="wVVDFKDkn5gD_K5r9pn0-10">
          <mxGeometry relative="1" as="geometry" />
        </mxCell>
        <mxCell id="wVVDFKDkn5gD_K5r9pn0-4" value="存储支付数据" style="rounded=0;whiteSpace=wrap;html=1;" vertex="1" parent="1">
          <mxGeometry x="343" y="289" width="134" height="60" as="geometry" />
        </mxCell>
        <mxCell id="wVVDFKDkn5gD_K5r9pn0-5" value="银联支付" style="rounded=0;whiteSpace=wrap;html=1;" vertex="1" parent="1">
          <mxGeometry x="610" y="289" width="134" height="60" as="geometry" />
        </mxCell>
        <mxCell id="wVVDFKDkn5gD_K5r9pn0-17" style="edgeStyle=orthogonalEdgeStyle;rounded=0;orthogonalLoop=1;jettySize=auto;html=1;entryX=1;entryY=0.5;entryDx=0;entryDy=0;" edge="1" parent="1" source="wVVDFKDkn5gD_K5r9pn0-10" target="wVVDFKDkn5gD_K5r9pn0-16">
          <mxGeometry relative="1" as="geometry" />
        </mxCell>
        <mxCell id="wVVDFKDkn5gD_K5r9pn0-18" value="通知" style="edgeLabel;html=1;align=center;verticalAlign=middle;resizable=0;points=[];" vertex="1" connectable="0" parent="wVVDFKDkn5gD_K5r9pn0-17">
          <mxGeometry x="0.0226" y="-3" relative="1" as="geometry">
            <mxPoint as="offset" />
          </mxGeometry>
        </mxCell>
        <mxCell id="wVVDFKDkn5gD_K5r9pn0-10" value="更新支付状态" style="rounded=0;whiteSpace=wrap;html=1;" vertex="1" parent="1">
          <mxGeometry x="347" y="389" width="134" height="60" as="geometry" />
        </mxCell>
        <mxCell id="wVVDFKDkn5gD_K5r9pn0-13" style="edgeStyle=orthogonalEdgeStyle;rounded=0;orthogonalLoop=1;jettySize=auto;html=1;entryX=0.351;entryY=1.067;entryDx=0;entryDy=0;entryPerimeter=0;" edge="1" parent="1" source="wVVDFKDkn5gD_K5r9pn0-10" target="wVVDFKDkn5gD_K5r9pn0-5">
          <mxGeometry relative="1" as="geometry" />
        </mxCell>
        <mxCell id="wVVDFKDkn5gD_K5r9pn0-15" value="获取支付结果" style="edgeLabel;html=1;align=center;verticalAlign=middle;resizable=0;points=[];" vertex="1" connectable="0" parent="wVVDFKDkn5gD_K5r9pn0-13">
          <mxGeometry x="-0.0743" relative="1" as="geometry">
            <mxPoint as="offset" />
          </mxGeometry>
        </mxCell>
        <mxCell id="wVVDFKDkn5gD_K5r9pn0-57" style="edgeStyle=orthogonalEdgeStyle;rounded=0;orthogonalLoop=1;jettySize=auto;html=1;exitX=0.381;exitY=1.017;exitDx=0;exitDy=0;exitPerimeter=0;" edge="1" parent="1" source="wVVDFKDkn5gD_K5r9pn0-16" target="wVVDFKDkn5gD_K5r9pn0-56">
          <mxGeometry relative="1" as="geometry">
            <Array as="points">
              <mxPoint x="70" y="450" />
              <mxPoint x="70" y="539" />
            </Array>
          </mxGeometry>
        </mxCell>
        <mxCell id="wVVDFKDkn5gD_K5r9pn0-16" value="业务系统" style="rounded=0;whiteSpace=wrap;html=1;" vertex="1" parent="1">
          <mxGeometry x="10" y="389" width="134" height="60" as="geometry" />
        </mxCell>
        <mxCell id="wVVDFKDkn5gD_K5r9pn0-25" style="edgeStyle=orthogonalEdgeStyle;rounded=0;orthogonalLoop=1;jettySize=auto;html=1;entryX=0.5;entryY=0;entryDx=0;entryDy=0;" edge="1" parent="1" source="wVVDFKDkn5gD_K5r9pn0-19" target="wVVDFKDkn5gD_K5r9pn0-20">
          <mxGeometry relative="1" as="geometry" />
        </mxCell>
        <mxCell id="wVVDFKDkn5gD_K5r9pn0-19" value="支付数据分类（标记收入、来往账）" style="rounded=0;whiteSpace=wrap;html=1;" vertex="1" parent="1">
          <mxGeometry x="343" y="989" width="134" height="60" as="geometry" />
        </mxCell>
        <mxCell id="wVVDFKDkn5gD_K5r9pn0-20" value="结束" style="rounded=1;whiteSpace=wrap;html=1;" vertex="1" parent="1">
          <mxGeometry x="350" y="1099" width="120" height="60" as="geometry" />
        </mxCell>
        <mxCell id="wVVDFKDkn5gD_K5r9pn0-28" style="edgeStyle=orthogonalEdgeStyle;rounded=0;orthogonalLoop=1;jettySize=auto;html=1;entryX=0.5;entryY=1;entryDx=0;entryDy=0;exitX=1;exitY=0.5;exitDx=0;exitDy=0;" edge="1" parent="1" source="wVVDFKDkn5gD_K5r9pn0-30" target="wVVDFKDkn5gD_K5r9pn0-5">
          <mxGeometry relative="1" as="geometry">
            <mxPoint x="460" y="559" as="sourcePoint" />
          </mxGeometry>
        </mxCell>
        <mxCell id="wVVDFKDkn5gD_K5r9pn0-29" value="获取（支付宝微信）交易回单" style="edgeLabel;html=1;align=center;verticalAlign=middle;resizable=0;points=[];" vertex="1" connectable="0" parent="wVVDFKDkn5gD_K5r9pn0-28">
          <mxGeometry x="-0.0854" y="-1" relative="1" as="geometry">
            <mxPoint x="-38" y="17" as="offset" />
          </mxGeometry>
        </mxCell>
        <mxCell id="wVVDFKDkn5gD_K5r9pn0-30" value="是否有退费" style="rhombus;whiteSpace=wrap;html=1;" vertex="1" parent="1">
          <mxGeometry x="368" y="679" width="80" height="80" as="geometry" />
        </mxCell>
        <mxCell id="wVVDFKDkn5gD_K5r9pn0-32" style="edgeStyle=orthogonalEdgeStyle;rounded=0;orthogonalLoop=1;jettySize=auto;html=1;exitX=0.5;exitY=1;exitDx=0;exitDy=0;entryX=0.013;entryY=0.425;entryDx=0;entryDy=0;entryPerimeter=0;" edge="1" parent="1" source="wVVDFKDkn5gD_K5r9pn0-30" target="wVVDFKDkn5gD_K5r9pn0-42">
          <mxGeometry relative="1" as="geometry" />
        </mxCell>
        <mxCell id="wVVDFKDkn5gD_K5r9pn0-37" value="是" style="edgeLabel;html=1;align=center;verticalAlign=middle;resizable=0;points=[];" vertex="1" connectable="0" parent="wVVDFKDkn5gD_K5r9pn0-32">
          <mxGeometry x="-0.1234" y="1" relative="1" as="geometry">
            <mxPoint y="1" as="offset" />
          </mxGeometry>
        </mxCell>
        <mxCell id="wVVDFKDkn5gD_K5r9pn0-46" style="edgeStyle=orthogonalEdgeStyle;rounded=0;orthogonalLoop=1;jettySize=auto;html=1;" edge="1" parent="1" source="wVVDFKDkn5gD_K5r9pn0-38" target="wVVDFKDkn5gD_K5r9pn0-19">
          <mxGeometry relative="1" as="geometry" />
        </mxCell>
        <mxCell id="wVVDFKDkn5gD_K5r9pn0-38" value="对账成功" style="rounded=0;whiteSpace=wrap;html=1;" vertex="1" parent="1">
          <mxGeometry x="350" y="899" width="134" height="60" as="geometry" />
        </mxCell>
        <mxCell id="wVVDFKDkn5gD_K5r9pn0-39" style="edgeStyle=orthogonalEdgeStyle;rounded=0;orthogonalLoop=1;jettySize=auto;html=1;exitX=0;exitY=0.5;exitDx=0;exitDy=0;entryX=0.5;entryY=0;entryDx=0;entryDy=0;" edge="1" parent="1" source="wVVDFKDkn5gD_K5r9pn0-30" target="wVVDFKDkn5gD_K5r9pn0-41">
          <mxGeometry relative="1" as="geometry" />
        </mxCell>
        <mxCell id="wVVDFKDkn5gD_K5r9pn0-40" value="否" style="edgeLabel;html=1;align=center;verticalAlign=middle;resizable=0;points=[];" vertex="1" connectable="0" parent="wVVDFKDkn5gD_K5r9pn0-39">
          <mxGeometry x="0.2402" y="3" relative="1" as="geometry">
            <mxPoint as="offset" />
          </mxGeometry>
        </mxCell>
        <mxCell id="wVVDFKDkn5gD_K5r9pn0-53" style="edgeStyle=orthogonalEdgeStyle;rounded=0;orthogonalLoop=1;jettySize=auto;html=1;" edge="1" parent="1" source="wVVDFKDkn5gD_K5r9pn0-41" target="wVVDFKDkn5gD_K5r9pn0-20">
          <mxGeometry relative="1" as="geometry">
            <Array as="points">
              <mxPoint x="40" y="809" />
              <mxPoint x="40" y="1129" />
            </Array>
          </mxGeometry>
        </mxCell>
        <mxCell id="wVVDFKDkn5gD_K5r9pn0-54" style="edgeStyle=orthogonalEdgeStyle;rounded=0;orthogonalLoop=1;jettySize=auto;html=1;entryX=0;entryY=0.5;entryDx=0;entryDy=0;" edge="1" parent="1" source="wVVDFKDkn5gD_K5r9pn0-41" target="wVVDFKDkn5gD_K5r9pn0-38">
          <mxGeometry relative="1" as="geometry">
            <Array as="points">
              <mxPoint x="240" y="929" />
            </Array>
          </mxGeometry>
        </mxCell>
        <mxCell id="wVVDFKDkn5gD_K5r9pn0-41" value="对账是否成功" style="rhombus;whiteSpace=wrap;html=1;" vertex="1" parent="1">
          <mxGeometry x="201" y="769" width="80" height="80" as="geometry" />
        </mxCell>
        <mxCell id="wVVDFKDkn5gD_K5r9pn0-44" style="edgeStyle=orthogonalEdgeStyle;rounded=0;orthogonalLoop=1;jettySize=auto;html=1;entryX=1;entryY=0.5;entryDx=0;entryDy=0;" edge="1" parent="1" source="wVVDFKDkn5gD_K5r9pn0-42" target="wVVDFKDkn5gD_K5r9pn0-20">
          <mxGeometry relative="1" as="geometry">
            <Array as="points">
              <mxPoint x="734" y="799" />
              <mxPoint x="734" y="1129" />
            </Array>
          </mxGeometry>
        </mxCell>
        <mxCell id="wVVDFKDkn5gD_K5r9pn0-42" value="对账是否成功" style="rhombus;whiteSpace=wrap;html=1;" vertex="1" parent="1">
          <mxGeometry x="564" y="759" width="80" height="80" as="geometry" />
        </mxCell>
        <mxCell id="wVVDFKDkn5gD_K5r9pn0-43" style="edgeStyle=orthogonalEdgeStyle;rounded=0;orthogonalLoop=1;jettySize=auto;html=1;exitX=0.5;exitY=1;exitDx=0;exitDy=0;entryX=1;entryY=0.5;entryDx=0;entryDy=0;" edge="1" parent="1" source="wVVDFKDkn5gD_K5r9pn0-42" target="wVVDFKDkn5gD_K5r9pn0-38">
          <mxGeometry relative="1" as="geometry">
            <mxPoint x="604.0320000000002" y="889.02" as="targetPoint" />
            <Array as="points">
              <mxPoint x="604" y="864" />
              <mxPoint x="605" y="864" />
              <mxPoint x="605" y="929" />
            </Array>
          </mxGeometry>
        </mxCell>
        <mxCell id="wVVDFKDkn5gD_K5r9pn0-50" style="edgeStyle=orthogonalEdgeStyle;rounded=0;orthogonalLoop=1;jettySize=auto;html=1;exitX=0;exitY=0.75;exitDx=0;exitDy=0;entryX=0;entryY=0.5;entryDx=0;entryDy=0;" edge="1" parent="1" source="wVVDFKDkn5gD_K5r9pn0-20" target="wVVDFKDkn5gD_K5r9pn0-20">
          <mxGeometry relative="1" as="geometry" />
        </mxCell>
        <mxCell id="wVVDFKDkn5gD_K5r9pn0-60" style="edgeStyle=orthogonalEdgeStyle;rounded=0;orthogonalLoop=1;jettySize=auto;html=1;entryX=0.5;entryY=1;entryDx=0;entryDy=0;" edge="1" parent="1" source="wVVDFKDkn5gD_K5r9pn0-56" target="wVVDFKDkn5gD_K5r9pn0-5">
          <mxGeometry relative="1" as="geometry" />
        </mxCell>
        <mxCell id="wVVDFKDkn5gD_K5r9pn0-56" value="更新退费信息" style="rounded=0;whiteSpace=wrap;html=1;" vertex="1" parent="1">
          <mxGeometry x="347" y="529" width="134" height="60" as="geometry" />
        </mxCell>
        <mxCell id="wVVDFKDkn5gD_K5r9pn0-58" style="edgeStyle=orthogonalEdgeStyle;rounded=0;orthogonalLoop=1;jettySize=auto;html=1;entryX=0.56;entryY=0.05;entryDx=0;entryDy=0;entryPerimeter=0;" edge="1" parent="1" source="wVVDFKDkn5gD_K5r9pn0-10" target="wVVDFKDkn5gD_K5r9pn0-56">
          <mxGeometry relative="1" as="geometry" />
        </mxCell>
        <mxCell id="wVVDFKDkn5gD_K5r9pn0-59" style="edgeStyle=orthogonalEdgeStyle;rounded=0;orthogonalLoop=1;jettySize=auto;html=1;entryX=0.55;entryY=0.1;entryDx=0;entryDy=0;entryPerimeter=0;" edge="1" parent="1" source="wVVDFKDkn5gD_K5r9pn0-56" target="wVVDFKDkn5gD_K5r9pn0-30">
          <mxGeometry relative="1" as="geometry" />
        </mxCell>
      </root>
    </mxGraphModel>
  </diagram>
</mxfile>
